<svg xmlns="http://www.w3.org/2000/svg" viewBox="0 0 384 512"><path d="M224 136V0H24C11 0 0 11 0 24v464c0 13 11 24 24 24h336c13 0 24-11 24-24V160H248c-13 0-24-11-24-24zm57 120H305c8 0 13 7 12 15l-38 168c-1 6-6 9-12 9h-38c-6 0-10-4-12-9-26-104-21-81-26-111h-0c-1 14-2 17-26 111-1 5-6 9-12 9H117c-6 0-11-5-12-9l-38-168c-2-8 4-15 12-15h25c6 0 11 4 12 10 16 78 20 110 21 122 2-10 7-33 29-123 1-5 6-9 12-9h29a12 12 0 0 1 12 9L248 395c-0-11-3-18 22-129 1-6 6-10 12-10zM384 122v6H256V0h6c6 0 13 3 17 7l98 98c5 5 7 11 7 17z"/></svg>