<svg xmlns="http://www.w3.org/2000/svg" viewBox="0 0 384 512"><path d="M182 256c-5-16-5-47-2-47 8 0 7 37 2 47zm-2 47c-8 20-17 43-28 63 18-7 39-17 63-22-13-10-25-23-35-41zM86 428c0 0 13-5 35-40-7 6-29 25-35 40zM248 160h136v328c0 13-11 24-24 24H24c-13 0-24-11-24-24V24C0 11 11 0 24 0h200v136c0 13 11 24 24 24zm-8 172c-20-12-33-29-43-54 5-19 12-47 6-64-5-29-42-27-48-7-5 18-0 44 8 77-12 28-29 65-41 86-0 0-.1.1-.2.1-27 14-74 45-55 68 6 7 16 10 22 10 18 0 36-18 61-62 26-9 54-19 79-23 22 12 47 20 64 20 29 0 31-32 20-43-14-14-54-10-74-7zM377 105L279 7c-5-5-11-7-17-7h-6v128h128v-6c0-6-3-12-7-17zm-74 255c4-3-3-12-43-9 37 16 43 9 43 9z"/></svg>