<svg xmlns="http://www.w3.org/2000/svg" viewBox="0 0 384 512"><path d="M384 122V128H256V0h6c6 0 12 3 17 7l98 98A24 24 0 0 1 384 122zM248 160c-13 0-24-11-24-24V0H24C11 0 0 11 0 24v464c0 13 11 24 24 24h336c13 0 24-11 24-24V160H248zM123 401a5 5 0 0 1-7.633.246l-65-61a5 5 0 0 1 0-8l65-61a5 5 0 0 1 7.633.246l20 21a5 5 0 0 1-0 8L101 336l41 36a5 5 0 0 1 0 8l-20 21zm51 50l-27-8a502 502 0 0 1-4-7l61-212a502 502 0 0 1 7-4l28 8a5 5 0 0 1 4 7l-61 212a5 5 0 0 1-7 4zm161-111l-65 61a5 5 0 0 1-8-0l-20-21a5 5 0 0 1 0-8L284 336l-41-36a5 5 0 0 1-0-8l20-21a5 5 0 0 1 8-0l65 61a5 5 0 0 1-0 8z"/></svg>